<svg xmlns="http://www.w3.org/2000/svg" viewBox="0 0 101 64">
    <defs>
        <style>.cls-1{fill:tomato;}</style>
    </defs>
    <g id="L_2">
        <g id="Layer_1">
            <path class="cls-1"
                  d="M88.74,22.69c-.31-.15-.63-.26-.62-.7,0-.13-.12-.37-.22-.38-1.13-.16-1.57-1.25-2.42-1.79a1.74,1.74,0,0,0-1.82-.27A3.37,3.37,0,0,1,86,21.62a.41.41,0,0,0,.28.22c1.2.1.67.68.35,1.21a5.46,5.46,0,0,0-.54,2.14c-.05.38,0,.77-.59.73s-.49-.39-.47-.74a2,2,0,0,0-.17-.9c-.17-.41-.31-.83-.82-.31-.12.12-.47.24-.45.09.18-1.12-1.73-1.1-1.24-2.38.12-.32-.38-.52-.52-.81,0-.07.06-.16.1-.16a1.08,1.08,0,0,0,1-.88c0-.12,0-.32-.11-.3-.57.07-1.17-.25-1.71.14a2.71,2.71,0,0,0-1,2.91,2.83,2.83,0,0,0,2.61,2.17c1.13,0,1.16.1,1.13,1.22,0,1.67,0,3.34,0,5,0,.33,0,.55.44.55a2.94,2.94,0,0,0,1.29,0c-.23-.57-1.2-.66-1-1.18s.9-.55,1.34-.88a4.14,4.14,0,0,0,1.65-3c.14-1.75.11-1.81,1.8-2,.8-.08.73-.34.4-.84A2.39,2.39,0,0,0,88.74,22.69Z"/>
            <path class="cls-1"
                  d="M86,32.59c-.4,0-.8,0-1.2,0-.57,0-1-.06-1,.77s.45.73,1,.72c.28,0,1.37,0,1.54,0s.85.07.82-.27C87.07,33.32,86.84,32.58,86,32.59Z"/>
            <path class="cls-1"
                  d="M72.46,19a2.52,2.52,0,0,0,1.3-2,7.37,7.37,0,0,0-.22-3.13c-.66-3.61-.24-6.92,2.73-9.52a10.25,10.25,0,0,1,4-1.91,11.61,11.61,0,0,1,6-.28,8.81,8.81,0,0,1,6.12,4.57,7.68,7.68,0,0,1,0,8.09,8,8,0,0,0-1,4.39c0,.68.22,1.34.94,1.58a1.92,1.92,0,0,0,2.17-.38c.67-.69,1.35-1.36,2-2.07a3.25,3.25,0,0,0,.49-.77c.52-1.13.26-1.81-.84-2.23.41-.58,1.07-.12,1.54-.41a1.53,1.53,0,0,0-2.49.72A6.28,6.28,0,0,0,94.73,18a3.12,3.12,0,0,1-.13,1,1.3,1.3,0,0,1-1.21,1c-.61,0-.93-.48-1.11-1.08a4.84,4.84,0,0,1,.86-4.17,7,7,0,0,0,.59-6,9.62,9.62,0,0,0-8.56-7.24c-3.54-.38-7.12-.05-9.74,2.83a10.34,10.34,0,0,0-2.71,8.13,16.33,16.33,0,0,1,.14,5.08C72.76,18,72.62,18.45,72.46,19Z"/>
            <path class="cls-1"
                  d="M83.71,36.63c.07.3.23.3.46.31,1,0,2.1.08,3.14.08.26,0,.79,0,.75-.21-.1-.49.13-1.29-.68-1.43a24.3,24.3,0,0,0-2.65-.14C83.74,35.26,83.47,35.65,83.71,36.63Z"/>
            <path class="cls-1"
                  d="M84.07,20.27c-.22-.1-.45-.27-.76,0a1.46,1.46,0,0,0,0,2.31c.43.39.76.87,1.48.67.26-.07.48.2.53.53s.16.71.24,1.06a20.41,20.41,0,0,1,.9-2.39c-.37-.22-.6,0-.84.11a1.05,1.05,0,0,1-1.41-.28,1,1,0,0,1-.13-1.4C84.12,20.72,84.5,20.46,84.07,20.27Z"/>
            <path class="cls-1"
                  d="M91,7.21a7.31,7.31,0,0,0-6.42-3.72,11.12,11.12,0,0,0-5.27.69,6.81,6.81,0,0,0-4.67,5.57,7.42,7.42,0,0,0,3.75,7.66,9.09,9.09,0,0,0,7,.7,9.55,9.55,0,0,0,3.85-1.67C92.45,13.83,92.94,10.85,91,7.21Z"/>
            <path class="cls-1"
                  d="M76.53,31.12a4.06,4.06,0,0,1,2.8-1.47c.78-.1,1.06.22,1,1-.17,3.6,0,7.19.08,10.79,0,.85.41.92,1.09.94.22,0,.44,0,.65,0,.81,0,.88-.44.9-1,.13-2.75.28-5.51.34-8.27,0-2.38,0-4.77,0-7.16,0-.37.12-.77-.55-.84-2.78-.27-4-2.56-2.7-5.09a1.94,1.94,0,0,0,.07-.3,5.51,5.51,0,0,0-3.36,2A13.05,13.05,0,0,0,74,28.72c-.49,3.51-.51,7.05-.76,10.58,0,.8,0,1.61,0,2.41,0,.22-.1.56.29.56s.37-.28.39-.53c.16-1.51.33-3,.47-4.53A10.69,10.69,0,0,1,76.53,31.12Z"/>
            <path class="cls-1"
                  d="M75.93,32.78c-.12.37-.5.75-.29,1.1s1,.17,1.18.18,1.64,0,2.45,0c1,0,.5-.61.62-1,.18-.6-.21-.58-.61-.58-.89,0-1.79,0-2.68-.06C76.3,32.44,76,32.45,75.93,32.78Z"/>
            <path class="cls-1"
                  d="M74.9,36.72c.08.37.34.29.58.29h3.44c1,0,1.34-.56,1-1.5-.1-.28-.27-.3-.5-.31-1.14,0-2.29,0-3.44,0A1.23,1.23,0,0,0,74.9,36.72Z"/>
            <path class="cls-1"
                  d="M74.56,39c0,.53.33.41.7.42,1.32,0,2.64,0,4,.1.44,0,.76,0,.77-.59s-.29-.72-.79-.72c-.68,0-1.36,0-2,0h0c-.65,0-1.3,0-1.94,0S74.57,38.54,74.56,39Z"/>
            <path class="cls-1"
                  d="M87.8,43c-1.83,0-3.66,0-5.49,0H75.05c-.31,0-.76-.08-.79.21s.46.21.75.22c2.2.11,4.4,0,6,0h6.81c.31,0,.56-.08.53-.27S88,43,87.8,43Z"/>
            <path class="cls-1"
                  d="M79.33,30.16A2.8,2.8,0,0,0,77,31.44a12.79,12.79,0,0,0,2.45.09c.66,0,.5-.54.53-.88S79.69,30.15,79.33,30.16Z"/>
            <path class="cls-1"
                  d="M80.09,41.37c0-.44,0-.88-.63-.88-1.45,0-2.91,0-4.35-.06-.77,0-.71.4-.76.93s.3.69.77.68c.71,0,3.62,0,4.36.07S80.12,41.83,80.09,41.37Z"/>
            <path class="cls-1"
                  d="M87.91,40.64c-.68,0-1.37,0-2,0h0a11.89,11.89,0,0,1-1.58,0c-.73-.1-.76.29-.78.85s.29.67.8.66q1.76,0,3.51.06c.5,0,.77-.05.74-.62S88.66,40.61,87.91,40.64Z"/>
            <path class="cls-1"
                  d="M83.58,39c0,.38.17.55.57.55,1.14,0,2.29.09,3.43.06.33,0,1,.25.94-.52,0-.56-.28-.92-.93-.79-.12,0-2.1,0-3-.06C84.15,38.18,83.5,38.13,83.58,39Z"/>
            <path class="cls-1"
                  d="M98,56.49c1.11-2.72,2.39-5.38,2.85-8.33a11.73,11.73,0,0,0,0-4.26c-.34-1.55-2.59-2.39-4.21-1.68a11.35,11.35,0,0,0-4,3,25.19,25.19,0,0,0-4.47,6.36c-.07.16-.13.4-.37.33s-.24-.42-.21-.7c.17-2.13.64-4.23.67-6.37,0-.48-.07-.59-.51-.59q-6.39,0-12.76-.14c-.75,0-.77.4-.81.93a76.71,76.71,0,0,0,0,11.14c0,.74.36,4.91.45,5S75,63.92,75,64H95.2C95.38,63.38,97.71,57.14,98,56.49Z"/>
            <path class="cls-1"
                  d="M47.33,22.4c-.22.37.17.75.43,1.05a.7.7,0,0,0,1,.16c.32-.2-.09-1.61-.56-1.94a1.06,1.06,0,0,0-1.14-.17c-.47.23-.32.78-.29,1,.18,1.46,1.09,1.7,1.76,2.45a.22.22,0,0,0,.38-.09A2.06,2.06,0,0,0,49,24c-.05-.21-.23,0-.35.05a1.36,1.36,0,0,1-1.28-.65c-.34-.42-.56-1-.22-1.37.63-.69.61.6,1.19.78C47.74,23,47.59,22,47.33,22.4Z"/>
            <path class="cls-1"
                  d="M51.18,26.92a3.66,3.66,0,0,1-1.4-1.2c-.44-.54-.85-.49-1,.16a1.84,1.84,0,0,1-1.22,1.4c-.37.14-.56.31-.49.74a5.79,5.79,0,0,1,0,1c0,.45-.45,1.05-.1,1.29a8.41,8.41,0,0,0,3.5.34c1-.14,1.71-.45,1.44-1.69,0-.09,0-.22,0-.27C52.78,27.64,52.09,27.28,51.18,26.92Z"/>
            <path class="cls-1"
                  d="M52.06,19.67c-.34,0-.68,0-1,0-1.46.17-2.13.83-2,2.26.24,1.87.62,3.74,2.55,4.76a2.92,2.92,0,0,0,1.79.33c.54-.06,1-.32.41-.93-.22-.22-.25-.36,0-.49.71-.37.42-.55-.09-.82a.58.58,0,0,1-.21-.86c.41,0,.08.6.48.57s.75,0,1-.16,0-.56-.15-.82-.3-.47-.46-.7c-.37-.54-.53-1.11-1.53-.6S50.66,22,49.27,22a8.52,8.52,0,0,1,4.24-.48c-.42-.4-.77-.46-1.87-.53-.7-.05-1.37.35-2.08.1a7.21,7.21,0,0,1,3.78-.15C53.23,20,52.91,19.62,52.06,19.67Z"/>
            <path class="cls-1"
                  d="M48.92,2.32c-.42-.34-1-.58-.6-1.21A1.3,1.3,0,0,1,49.87.44,3.29,3.29,0,0,1,52,2.31a6.48,6.48,0,0,1,.31,4.74,11.64,11.64,0,0,1-3.56,5.69c-.17.15-.51.27-.35.52s.5.12.72,0A8.57,8.57,0,0,0,52.38,8.9c.74-2.17,1.32-4.35.26-6.59A3.66,3.66,0,0,0,49.75,0a1.69,1.69,0,0,0-1.86,1.11C47.57,1.82,48,2.4,48.92,2.32Z"/>
            <path class="cls-1"
                  d="M37.63,8.66a8.3,8.3,0,0,1,2.61,5.25A21.3,21.3,0,0,0,45,25.43a11.76,11.76,0,0,0,1,1.08,1.29,1.29,0,0,0,1.93-.06c.66-.62.24-1.14-.17-1.61a7,7,0,0,1-1.22-1.5c-.34-.69-.57-1.43,0-2a1.5,1.5,0,0,1,2-.1,3,3,0,0,1,3.16-2c1.26,0,1.24,0,.7-1.22a16.21,16.21,0,0,0-7.89-8c-.47-.23-.91-.53-1.38-.78a5.81,5.81,0,0,1-2.7-3.51,3.78,3.78,0,0,0-1.94-2.38,1.83,1.83,0,0,0-2.07.11,2,2,0,0,0-.6,2.19A6.23,6.23,0,0,0,37.63,8.66Z"/>
            <path class="cls-1"
                  d="M54.66,27.45c-.17-.25-.52-.19-.79-.07s-.26.33-.14.56c1.5,2.83,2.49,6.06,5.82,7.49-2.33-1.68-3.09-4.37-4.29-6.77A12.38,12.38,0,0,0,54.66,27.45Z"/>
            <path class="cls-1"
                  d="M67.29,53A34.34,34.34,0,0,0,68.88,46a4.61,4.61,0,0,0-.5-2.8c-1.13-2-2.69-2.51-4.78-1.48A16.19,16.19,0,0,0,57,48a14.38,14.38,0,0,0-1.37,2.53c-.06.17-.11.41-.36.33s-.13-.3-.08-.47a38.76,38.76,0,0,0,.41-5.57c-.43-11.56-1.92-12.48-2-12.53-.19-.44-.53-1.18-1.17-1a11.67,11.67,0,0,1-6,.18c-.65-.15-.87.49-1.14.89,0,0-2.46.87-2.21,22.71,0,1-.78,8.3-1.12,8.9H63.44C63.57,63.7,66.71,54.77,67.29,53Z"/>
            <path class="cls-1"
                  d="M6.83,31.18c-.18,1.87-.24,1.85,1.61,2.06a27.59,27.59,0,0,0,3.52,0c1.44,0,1.09-.94,1.09-1.74,0-1-.55-.77-1.11-.73a3.71,3.71,0,0,1-.39,0,17.38,17.38,0,0,1-3.77-.32C7.19,30.38,6.9,30.4,6.83,31.18Z"/>
            <path class="cls-1"
                  d="M11.58,25.91c.17-.16-.09-.28-.25-.41a1.47,1.47,0,0,0-2.2.34,2.12,2.12,0,0,0,2,.29A1.5,1.5,0,0,0,11.58,25.91Z"/>
            <path class="cls-1"
                  d="M8.26,10.2c.34.07.42-.11.35-.34a8,8,0,0,0-.9-2.23.63.63,0,0,0-.87-.23.73.73,0,0,0-.43.78A2.67,2.67,0,0,0,8.26,10.2Z"/>
            <path class="cls-1"
                  d="M8.14,12a28.44,28.44,0,0,0-3,9.06,66.66,66.66,0,0,0-1,12.14c0,.91.3,1.06,1.13,1.1s.88-.38.91-1a16.21,16.21,0,0,1,1.4-6.61l.09-.2c.68-1.09,1.49-2.2,2.88-2.08s1.76,1.28,2.21,2.35a10.76,10.76,0,0,1,.66,4.63c0,.77,0,1.54,0,2.3,0,.39,0,.66.4.8.17.06,1.34.46,1.72-.4a2.42,2.42,0,0,0,.13-.86q.13-6.49.26-13c0-.56,0-.78-.76-.88-2-.29-3.08-3.09-1.89-4.77.59-.82,1.26-.89,2.08-.09.6.6,1,.76,1.52-.1.89-1.38,2.37-1.76,3.9-2,.25,0,.72.09.62-.38s-.44-.11-.66-.06A22.75,22.75,0,0,1,9,11.48C8.42,11.29,8.33,11.7,8.14,12Z"/>
            <path class="cls-1"
                  d="M.29,21.24c.44.13.37-.41.48-.69,1.68-4.21,4.07-7.84,8.17-10.09a6.47,6.47,0,0,0-3,1.49A23.16,23.16,0,0,0,.2,20.31C.06,20.64-.22,21.09.29,21.24Z"/>
            <path class="cls-1"
                  d="M7.74,27.9c-.55,1.15-.39,1.43.88,1.59a17.8,17.8,0,0,0,3.5,0c.42,0,.8,0,.7-.62s.11-1.38-.92-1.26l-.88.07a6.76,6.76,0,0,1-2.28-.26A.72.72,0,0,0,7.74,27.9Z"/>
            <path class="cls-1"
                  d="M19.89,34.38c-2.07.29-4.19.84-6.23.57s-4.06-.09-6.07-.31c-.32,0-.94-.31-1,.33,0,.45,0,.83.82.91,1.71.16,3.42.3,5.15.32a49.07,49.07,0,0,0,7.66-.43c1.07-.16,1-.65.87-1.18S20.29,34.33,19.89,34.38Z"/>
            <path class="cls-1"
                  d="M17.68,33.06c.79-.11,1.59-.17,2.39-.25s1-.32.71-1.08a4.87,4.87,0,0,1-.22-.95c-.13-.66-.44-.93-1.14-.64a4.25,4.25,0,0,1-1.84.22c-1,0-1.42.21-1.41,1.23C16.16,33.27,16.16,33.26,17.68,33.06Z"/>
            <path class="cls-1"
                  d="M18,26.84c-1.44.11-1.89.53-1.72,1.6a1,1,0,0,0,.17.5,5.43,5.43,0,0,0,2.91-.54c.11-.48-.31-.77-.52-1.14A.8.8,0,0,0,18,26.84Z"/>
            <path class="cls-1"
                  d="M22.5,22.18c-.21-.3-.61-.22-.93-.08s-.31.39-.17.65c1.78,3.35,2.94,7.18,6.88,8.87-2.75-2-3.65-5.17-5.08-8A10,10,0,0,0,22.5,22.18Z"/>
            <path class="cls-1"
                  d="M20.78,13a4.46,4.46,0,0,0-3.53,1.74c-.34.49-.26.76.38.67a16.17,16.17,0,0,0,1.95-.32,2.7,2.7,0,0,1,2.47.35,3.48,3.48,0,0,1-2.4.5,12.66,12.66,0,0,1-1.74-.17c-1.1-.19-1.29.29-1.06,1.25a6.51,6.51,0,0,0,3.76,4.59,1,1,0,0,0,1.47-.46c.29-.78-.26-1.61.17-2.46.27-.54-.83-.33-.87-1.05a1.35,1.35,0,0,0,1.1.14c.7-.15.8-.49.55-1.1-1-2.42-1.85-2.82-4.4-2.08a2,2,0,0,1-.74.1A4.52,4.52,0,0,1,20.81,14c.29,0,.79.29.83-.35S21.27,12.92,20.78,13Z"/>
            <path class="cls-1"
                  d="M18.76,21a5,5,0,0,1-1.54-1.82c-.19-.31-.31-.65-.68-.79-.09,2.07-.19,4.13-.24,6.19,0,1.33,0,1.34,1.39.87,0-.13-.09-.27-.14-.4-.66-1.65-.51-2.15,1.1-3C19.33,21.68,19.48,21.43,18.76,21Z"/>
            <path class="cls-1"
                  d="M14.65,15.52a1.36,1.36,0,0,0,0,1.74c.42.51.85.41,1.35.14a1.45,1.45,0,0,0,.13-1.78,2.43,2.43,0,0,0-.46-.3c-.59-.3-1-1.46-1.88-.44a1.87,1.87,0,0,0,.2,2.95c.22.19.45.38.65.59.53.57,1,.71,1.47-.08.11-.19.28-.19.43,0,.25-.84-.34-.57-.69-.42s-.48.63-.79.24-1.18-.68-1.29-1.43a.12.12,0,0,1,0-.1c.21-.54-.07-1.39.53-1.59.77-.27,1,.75,1.59,1C15.37,16.15,15.07,15.76,14.65,15.52Z"/>
            <path class="cls-1"
                  d="M10.15,10.37a17.36,17.36,0,0,0,5.36.76,23.26,23.26,0,0,0,4.63-.49c.76-.2.67-.44.26-.93C18.87,7.86,15.29,7,12.68,7.79A6.55,6.55,0,0,0,9.9,9.28C9.29,9.87,9.46,10.11,10.15,10.37Z"/>
            <path class="cls-1"
                  d="M38.4,46a8.26,8.26,0,0,0-.17-5.71c-.85-1.84-2.44-2.27-4.33-1.58a12.74,12.74,0,0,0-4.43,3c-2.71,2.6-4.81,5.74-7.56,8.29-.18.16-.26.52-.59.34s-.08-.39-.08-.6a20,20,0,0,0-.52-5.46,10.23,10.23,0,0,1,0-5.57c0-.11.08-.29.1-.4.42-2,.38-1.94-1.55-1.69a40.79,40.79,0,0,1-10.87,0c-1.75-.23-1.77-.21-1.52,1.55a24.52,24.52,0,0,1,.2,7.55c-.25,1.54-.93,3-1.1,4.57a11,11,0,0,0,.58,4.87A5.5,5.5,0,0,1,5,61.47,18.38,18.38,0,0,1,2.14,64H31.73C31.85,63.25,37.48,49.48,38.4,46Z"/>
        </g>
    </g>
</svg>